<svg version="1.1" xmlns="http://www.w3.org/2000/svg" xmlns:xlink="http://www.w3.org/1999/xlink" width="1024px" height="1024px" viewBox="0,0,256,256"><g fill="#5a5252" fill-rule="nonzero" stroke="none" stroke-width="1" stroke-linecap="butt" stroke-linejoin="miter" stroke-miterlimit="10" stroke-dasharray="" stroke-dashoffset="0" font-family="none" font-weight="none" font-size="none" text-anchor="none" style="mix-blend-mode: normal"><g transform="scale(0.25,0.25)"><path d="M512,64c-247.2,0 -448,200.8 -448,448c0,247.2 200.8,448 448,448c247.2,0 448,-200.8 448,-448c0,-247.2 -200.8,-448 -448,-448zM384.8,376c4,-64 56,-115.2 120,-119.2c74.4,-4 135.2,55.2 135.2,128c0,70.4 -57.6,128 -128,128c-73.6,0 -132,-62.4 -127.2,-136.8zM768,746.4c0,12 -9.6,21.6 -21.6,21.6h-468c-12,0 -21.6,-9.6 -21.6,-21.6v-64c0,-84.8 170.4,-128 255.2,-128c84.8,0 255.2,42.4 255.2,128z"></path></g></g></svg>